PathFileType	4	(X/Y/Z)	C:\Users\dbl\Desktop\20210112\20210112\bx_n_0_1801.trc
DataRate	CameraRate	NumFrames	NumMarkers	Units	OrigDataRate	OrigDataStartFrame	OrigNumFrames
50.00	50.00	       8	43	mm	50.00	298	       397
Frame#	Time	Top.Head			R.Acromium			L.Acromium			Sternum			R.ASIS			L.ASIS			V.Sacral			R.Thigh.Upper			R.Thigh.Front			R.Thigh.Rear			R.Knee.Lat			R.Knee.Med			R.Shank.Upper			R.Shank.Front			R.Shank.Rear			R.Ankle.Lat			R.Midfoot.Lat			R.Toe.Lat			R.Toe.Tip			R.Toe.Med			R.Ankle.Med			R.Midfoot.Sup			R.Heel			L.Thigh.Upper			L.Thigh.Front			L.Thigh.Rear			L.Knee.Lat			L.Knee.Med			L.Shank.Upper			L.Shank.Front			L.Shank.Rear			L.Ankle.Lat			L.Midfoot.Lat			L.Toe.Lat			L.Toe.Tip			L.Toe.Med			L.Ankle.Med			L.Midfoot.Sup			L.Heel			origin1 front left			origin2 front right			origin 3 back right			origin 4 back leftt			
		X1	Y1	Z1	X2	Y2	Z2	X3	Y3	Z3	X4	Y4	Z4	X5	Y5	Z5	X6	Y6	Z6	X7	Y7	Z7	X8	Y8	Z8	X9	Y9	Z9	X10	Y10	Z10	X11	Y11	Z11	X12	Y12	Z12	X13	Y13	Z13	X14	Y14	Z14	X15	Y15	Z15	X16	Y16	Z16	X17	Y17	Z17	X18	Y18	Z18	X19	Y19	Z19	X20	Y20	Z20	X21	Y21	Z21	X22	Y22	Z22	X23	Y23	Z23	X24	Y24	Z24	X25	Y25	Z25	X26	Y26	Z26	X27	Y27	Z27	X28	Y28	Z28	X29	Y29	Z29	X30	Y30	Z30	X31	Y31	Z31	X32	Y32	Z32	X33	Y33	Z33	X34	Y34	Z34	X35	Y35	Z35	X36	Y36	Z36	X37	Y37	Z37	X38	Y38	Z38	X39	Y39	Z39	X40	Y40	Z40	X41	Y41	Z41	X42	Y42	Z42	X43	Y43	Z43	

298	5.940	-547.67377	99.17532	1790.83264	-552.28986	-84.40756	1489.37341	-568.85962	271.07745	1488.54248	-531.55109	86.43253	1277.80957	-678.87256	-23.32650	1034.17273	-675.43561	214.70044	1040.57617	-876.55353	77.27184	1050.01233	-729.14850	-92.13152	860.35516	-627.17670	-27.34504	817.36774	-702.95874	-77.17154	744.60352	-661.59766	-43.36478	606.89301	-632.97308	65.09296	573.92255	-660.76312	-41.33434	559.42615	-613.52020	4.71730	508.08737	-714.99384	-49.12849	484.65292	-753.32977	-15.36828	207.67421	-650.66840	-68.91189	161.10341	-608.59631	-75.80381	158.59560	-551.56604	-33.26566	165.63863	-596.74573	23.68089	167.51059	-709.99518	72.35195	213.75543	-671.32123	53.08400	156.64218	-788.62726	45.21589	178.18925	-735.07477	270.39499	859.79028	-613.54169	205.30957	809.30298	-685.53741	261.90247	732.23022	-689.72437	242.67404	617.42297	-614.25085	135.09729	571.27448	-650.67615	237.20242	566.59009	-600.66803	194.43660	521.49268	-698.41785	248.52243	498.24887	-760.22156	222.93881	207.38202	-653.76727	291.61230	157.85468	-617.72333	298.33881	159.57320	-552.92450	248.07472	166.08211	-587.91003	210.79805	173.20462	-706.45630	146.59933	210.21510	-673.34894	166.84583	154.83745	-791.40442	174.26718	187.30550	-528.16479	304.10727	146.60994	-517.57208	-72.88284	143.46695	-875.99426	-78.78780	141.40765	-882.46191	296.22101	144.79654	
299	5.960	-551.83069	98.61235	1795.51697	-554.64355	-84.64304	1493.78210	-571.07617	270.83435	1492.94324	-531.30634	86.26971	1282.60632	-675.70294	-23.52962	1036.78137	-672.68817	214.71164	1043.38892	-873.48608	76.94466	1051.90649	-727.02301	-92.20178	861.97174	-625.66779	-27.45642	817.58038	-702.63617	-76.73320	745.60004	-663.29303	-43.09648	607.40308	-634.90314	65.21806	574.27625	-662.57166	-41.11985	559.93311	-615.19073	4.79104	508.73877	-716.58026	-49.07166	484.87918	-753.47339	-15.39652	207.79652	-650.64801	-68.96654	161.09973	-608.59137	-75.85355	158.54521	-551.55682	-33.20811	165.61145	-596.72284	23.63011	167.53104	-710.13281	72.19908	213.91350	-671.32465	53.01561	156.81282	-788.63318	45.09005	178.36525	-733.23480	270.35648	861.70825	-612.71130	205.15942	809.74994	-685.80969	261.64264	733.52740	-691.31946	242.88002	618.80792	-616.52155	134.83435	571.80884	-652.97589	236.97615	567.18164	-602.85028	194.34390	522.24933	-700.51105	248.46147	498.61975	-760.26190	222.96954	207.40678	-653.77893	291.64096	157.84261	-617.69812	298.35132	159.54521	-552.89526	248.06430	166.07518	-587.87341	210.81735	173.21530	-706.66589	146.72047	210.41101	-673.33417	166.87581	154.86264	-791.46710	174.41388	187.33977	-528.16846	304.11334	146.59792	-517.57849	-72.88557	143.46402	-875.97797	-78.75021	141.40091	-882.48572	296.20798	144.75484	
300	5.980	-556.02930	98.13953	1799.90649	-556.90015	-84.84644	1497.89563	-573.37384	270.63580	1497.06958	-531.11328	86.20219	1287.18567	-672.57446	-23.64587	1039.17163	-670.09155	214.82083	1046.04565	-870.52502	76.59782	1053.64331	-724.78882	-92.16169	863.40204	-624.08887	-27.46255	817.67566	-702.07587	-76.32668	746.57233	-664.78967	-42.80949	607.94348	-636.76190	65.54544	574.61334	-664.19312	-40.78491	560.42639	-616.70801	5.12753	509.32074	-717.84686	-49.02604	485.18958	-753.60718	-15.42140	207.88112	-650.62433	-68.96011	161.07745	-608.57904	-75.87455	158.52129	-551.54230	-33.16814	165.61101	-596.75220	23.64820	167.46199	-710.36511	72.06308	213.98270	-671.36377	53.00618	156.93964	-788.68420	44.99544	178.49661	-731.66193	270.21661	863.51727	-611.95673	205.17685	810.11719	-686.23615	261.34882	734.78192	-692.96106	243.05618	620.18719	-618.81165	134.57054	572.35284	-655.32727	236.77354	567.78729	-605.03552	194.24200	523.01813	-702.66772	248.33897	498.97873	-760.30542	222.97137	207.40971	-653.78241	291.65387	157.79663	-617.66400	298.35229	159.51292	-552.88434	248.06281	166.06523	-587.87213	210.83951	173.22318	-706.93018	146.84404	210.65976	-673.32080	166.89491	154.86047	-791.55475	174.53899	187.35205	-528.16931	304.16049	146.59848	-517.58600	-72.87186	143.45961	-875.95709	-78.71246	141.40651	-882.50201	296.18497	144.71321	
301	6.000	-560.20764	97.68176	1804.00720	-559.11328	-85.05324	1501.73755	-575.73022	270.49585	1500.92786	-531.01636	86.23589	1291.51282	-669.45288	-23.72876	1041.42822	-667.62714	215.02585	1048.52795	-867.65692	76.24313	1055.23059	-722.44885	-91.98288	864.64685	-622.46191	-27.28761	817.71356	-701.33563	-75.94547	747.59283	-666.08685	-42.38806	608.47742	-638.50964	66.09566	574.93274	-665.69885	-40.32652	560.90631	-618.11072	5.71860	509.84882	-718.85034	-48.91566	485.58258	-753.72833	-15.44220	207.93117	-650.59766	-68.89344	161.04384	-608.56445	-75.84642	158.52763	-551.52563	-33.14157	165.63953	-596.83575	23.77298	167.28438	-710.66479	71.98261	213.98877	-671.46075	53.07724	156.97279	-788.78003	44.94193	178.56062	-730.34546	269.97336	865.21667	-611.28076	205.32620	810.38593	-686.81659	260.96173	735.96747	-694.61584	243.10977	621.48779	-621.10504	134.32230	572.89978	-657.71985	236.60933	568.42126	-607.25983	194.13733	523.78705	-704.86310	248.13481	499.34482	-760.35913	222.95226	207.39693	-653.78009	291.65024	157.72704	-617.64111	298.35892	159.50842	-552.88226	248.05807	166.05431	-587.89825	210.85509	173.22588	-707.20093	146.93202	210.90977	-673.31158	166.91451	154.84087	-791.65289	174.56062	187.31567	-528.17517	304.22977	146.59488	-517.58301	-72.82677	143.46077	-875.95642	-78.69122	141.43756	-882.50464	296.18210	144.70959	
302	6.020	-564.31866	97.19482	1807.84778	-561.35266	-85.28683	1505.34448	-578.12305	270.42715	1504.52808	-531.05566	86.32059	1295.56885	-666.32922	-23.78447	1043.56421	-665.23218	215.31378	1050.83289	-864.84485	75.89086	1056.65698	-720.01013	-91.66475	865.73547	-620.77936	-26.86962	817.73529	-700.51398	-75.48724	748.64288	-667.25006	-41.76964	608.95123	-640.18872	66.81586	575.21136	-667.11646	-39.74932	561.35724	-619.46582	6.47514	510.34128	-719.77325	-48.66718	485.92838	-753.82605	-15.47389	207.97339	-650.56512	-68.78599	161.03001	-608.53528	-75.77525	158.57567	-551.50708	-33.09743	165.66124	-596.94269	24.00519	167.05351	-710.96790	71.98210	213.98283	-671.58386	53.18172	156.89401	-788.90015	44.90973	178.57336	-729.19104	269.72308	866.79883	-610.68665	205.57523	810.57257	-687.53186	260.49362	737.05664	-696.30963	243.02588	622.68402	-623.37744	134.12254	573.40710	-660.11993	236.49518	569.07727	-609.52734	194.06198	524.54663	-707.04279	247.87135	499.71890	-760.43835	222.93724	207.37907	-653.77954	291.64169	157.67062	-617.63928	298.39645	159.53735	-552.89221	248.04498	166.04755	-587.93475	210.86874	173.22443	-707.43671	146.98891	211.11386	-673.30945	166.94620	154.82990	-791.74524	174.46120	187.22012	-528.18756	304.27786	146.58167	-517.54688	-72.74250	143.47427	-875.97986	-78.69440	141.48532	-882.50549	296.20728	144.74390	
303	6.040	-568.33942	96.68556	1811.45801	-563.64966	-85.50752	1508.71826	-580.53113	270.44666	1507.88867	-531.23975	86.41324	1299.37549	-663.24084	-23.79056	1045.53320	-662.85455	215.67809	1052.95996	-862.05133	75.58417	1057.90869	-717.51691	-91.23415	866.71869	-619.07458	-26.21481	817.74359	-699.70789	-74.85172	749.61053	-668.38239	-41.03561	609.37238	-641.92578	67.63180	575.44684	-668.50104	-39.08828	561.76862	-620.87512	7.29964	510.81403	-720.79700	-48.27495	486.11050	-753.90002	-15.52963	208.02347	-650.53271	-68.66297	161.05743	-608.49017	-75.69022	158.65126	-551.48627	-33.00600	165.63892	-597.02252	24.29357	166.85953	-711.25226	72.04736	214.02753	-671.68195	53.25507	156.74463	-789.02679	44.87678	178.54184	-728.07813	269.53210	868.23297	-610.15338	205.90587	810.68872	-688.31152	260.02417	738.03809	-698.08734	242.89241	623.76440	-625.57867	134.02608	573.86786	-662.52368	236.42424	569.71570	-611.78088	194.05977	525.29639	-709.17297	247.60997	500.07092	-760.57434	222.94609	207.36002	-653.78815	291.64557	157.64278	-617.64203	298.48242	159.56563	-552.91699	248.02754	166.05286	-587.97534	210.89790	173.23007	-707.62585	147.04485	211.25211	-673.31738	166.98912	154.83968	-791.81238	174.29947	187.07741	-528.19849	304.27792	146.57359	-517.46893	-72.62404	143.49754	-876.00598	-78.70863	141.52705	-882.51672	296.23663	144.77884	
304	6.060	-572.25885	96.18073	1814.85767	-565.98248	-85.63377	1511.86035	-582.94708	270.55963	1511.05652	-531.54462	86.51665	1302.98438	-660.22906	-23.72372	1047.32373	-660.46375	216.13055	1054.92554	-859.26025	75.39042	1059.00903	-715.05737	-90.70994	867.64581	-617.44977	-25.40001	817.73456	-698.97546	-74.05170	750.41486	-669.58661	-40.34621	609.79010	-643.80682	68.44913	575.64966	-669.94116	-38.42035	562.14014	-622.42706	8.11095	511.28418	-722.00562	-47.80057	486.14685	-753.98572	-15.61958	208.06047	-650.50995	-68.55516	161.11005	-608.45178	-75.61463	158.70070	-551.46344	-32.86412	165.57422	-597.04382	24.55029	166.75627	-711.53821	72.12727	214.15173	-671.74011	53.27271	156.61284	-789.15820	44.81902	178.45477	-726.90540	269.40320	869.51025	-609.59613	206.30388	810.73492	-689.03271	259.64661	738.93304	-699.94727	242.82123	624.72015	-627.65686	134.04082	574.34576	-664.94324	236.37289	570.29681	-613.95569	194.15921	526.03174	-711.25677	247.42566	500.39102	-760.80157	222.98596	207.33797	-653.81445	291.66711	157.61714	-617.62500	298.60678	159.54652	-552.94702	248.01100	166.07457	-588.02173	210.95706	173.26479	-707.78479	147.11945	211.34389	-673.32678	167.02074	154.86560	-791.85242	174.14943	186.93280	-528.20325	304.23141	146.57680	-517.38373	-72.50632	143.51338	-876.01648	-78.71848	141.54643	-882.52734	296.24072	144.77968	
305	6.080	-576.07587	95.72299	1818.08325	-568.31451	-85.63275	1514.82605	-585.38831	270.74216	1514.09265	-531.93817	86.64890	1306.45789	-657.30652	-23.57733	1048.98584	-658.01770	216.65485	1056.77026	-856.48877	75.35719	1060.00574	-712.74609	-90.12191	868.54547	-616.00171	-24.54820	817.71649	-698.33954	-73.21420	751.09229	-670.92316	-39.80231	610.21960	-645.79431	69.14819	575.81671	-671.49054	-37.81973	562.48004	-624.08807	8.82001	511.77206	-723.35321	-47.34999	486.16666	-754.13763	-15.76226	208.06255	-650.50348	-68.50733	161.14146	-608.43384	-75.55651	158.68593	-551.44525	-32.70404	165.49936	-597.02069	24.70611	166.73883	-711.82562	72.16087	214.30684	-671.78015	53.25908	156.58092	-789.29401	44.69327	178.31581	-725.59119	269.38055	870.69305	-608.90656	206.74001	810.71948	-689.58917	259.40283	739.78656	-701.86029	242.85506	625.62164	-629.63745	134.07770	574.89398	-667.37689	236.30281	570.81177	-616.05548	194.31490	526.72284	-713.28412	247.33875	500.70865	-761.10950	223.04805	207.30626	-653.86414	291.69205	157.56163	-617.58691	298.71832	159.46368	-552.97296	248.00076	166.10590	-588.07507	211.04002	173.33957	-707.93762	147.21581	211.42540	-673.34351	167.02589	154.89211	-791.88660	174.05684	186.82977	-528.20282	304.15735	146.58067	-517.34369	-72.44498	143.50618	-876.01514	-78.72896	141.54300	-882.52008	296.21259	144.74744	
